<svg xmlns="http://www.w3.org/2000/svg" width="198" height="60" viewBox="0 0 198 60" fill="none">
  <g clip-path="url(#clip0_5_0)">
    <path d="M93.059 24.9747C93.059 23.8579 93.5583 23.3503 94.5568 23.3503H100.947C103.144 23.3503 104.741 23.9594 105.54 25.1777C105.939 25.7868 106.139 26.599 106.139 27.3097C106.239 28.528 105.74 29.6447 104.741 30.3554C103.943 30.9645 102.944 31.3706 101.946 31.3706H99.2496C98.351 31.3706 97.8517 30.9645 97.8517 30.0508C97.8517 29.1371 98.2511 28.731 99.1498 28.731H101.946C102.744 28.731 103.144 28.528 103.343 28.1219C103.343 28.0203 103.443 27.9188 103.443 27.8173C103.443 27.7158 103.443 27.5127 103.443 27.4112C103.443 27.1066 103.443 26.9036 103.244 26.7005C103.044 26.4975 102.844 26.396 102.545 26.2945C102.345 26.1929 102.045 26.1929 101.846 26.1929C101.546 26.1929 101.147 26.0914 100.747 26.0914H96.4539C95.8548 26.0914 95.5552 26.396 95.5552 27.1066V35.4315C95.5552 36.3452 95.1558 36.7513 94.2572 36.7513C93.6581 36.8528 93.059 36.4467 92.9592 35.7361C92.9592 35.6346 92.9592 35.533 92.9592 35.4315V24.9747H93.059Z" fill="url(#paint0_linear_5_0)"/>
    <path d="M113.927 31.2691V32.995C113.927 33.6041 114.227 34.0102 114.726 34.0102H123.213C124.012 34.0102 124.312 34.4163 124.312 35.33C124.312 36.2437 123.912 36.6498 123.113 36.6498H112.629C111.731 36.6498 111.231 36.1422 111.231 35.1269V24.8731C111.231 23.8579 111.731 23.3503 112.529 23.3503H123.113C123.912 23.3503 124.212 23.7564 124.212 24.6701C124.212 25.5838 123.812 25.9899 123.113 25.9899H114.526C114.027 25.9899 113.728 26.2944 113.728 26.9036V28.731H118.021C118.92 28.731 119.319 29.2386 119.319 30.0508C119.319 30.863 118.82 31.3706 117.921 31.3706H113.927V31.2691Z" fill="url(#paint1_linear_5_0)"/>
    <path d="M136.293 27.4112C135.994 26.4975 135.694 26.4975 135.395 27.4112L132.2 36.0406C132.1 36.4467 131.8 36.6498 131.401 36.6498H130.103C129.604 36.6498 129.504 36.3452 129.604 35.7361L134.097 24.0609C134.496 23.4518 135.195 23.2488 135.794 23.2488C136.493 23.1472 137.092 23.4518 137.492 24.0609L142.085 35.7361C142.284 36.2437 142.085 36.5483 141.685 36.6498H140.387C139.988 36.6498 139.688 36.3452 139.588 36.0406L136.293 27.4112Z" fill="url(#paint2_linear_5_0)"/>
    <path d="M148.775 23.3503C148.175 23.2488 147.576 23.7564 147.477 24.3655C147.477 24.467 147.477 24.5686 147.477 24.6701V35.33C147.377 35.9391 147.876 36.5483 148.475 36.6498C148.575 36.6498 148.675 36.6498 148.775 36.6498C149.673 36.6498 150.073 36.2437 150.073 35.33V24.6701C150.073 23.7564 149.673 23.3503 148.775 23.3503Z" fill="url(#paint3_linear_5_0)"/>
    <path d="M178.729 24.9747V29.9493C178.829 31.7767 178.23 33.5026 176.932 34.8224C174.436 37.462 170.342 37.5635 167.646 35.1269C166.248 33.8071 165.549 31.9797 165.649 30.0508V24.6701C165.549 24.0609 166.048 23.4518 166.648 23.3503C166.747 23.3503 166.847 23.3503 166.947 23.3503C167.846 23.3503 168.245 23.7564 168.245 24.6701V30.0508C168.145 31.5736 168.944 32.995 170.242 33.6041C170.841 33.9087 171.44 34.0102 172.139 34.0102C173.537 34.1117 174.835 33.4011 175.534 32.1828C175.933 31.4721 176.133 30.7614 176.033 29.9493V24.6701C176.033 23.7564 176.433 23.3503 177.331 23.3503C177.93 23.2488 178.529 23.7564 178.629 24.3655C178.629 24.467 178.629 24.5686 178.629 24.6701L178.729 24.9747Z" fill="url(#paint4_linear_5_0)"/>
    <path d="M76.0847 31.1675C75.1861 30.7614 74.3873 29.9492 73.9879 29.0355C73.5885 28.0203 73.5885 26.9036 73.9879 25.8883C74.3873 24.9746 75.1861 24.1624 76.0847 23.7564C76.584 23.5533 77.0832 23.4518 77.6823 23.4518H86.469C86.8684 23.4518 87.1679 23.6548 87.4675 23.8579C88.0666 24.467 88.0666 25.3807 87.4675 25.8883C87.1679 26.1929 86.8684 26.2944 86.469 26.2944H77.5825C77.2829 26.2944 76.9833 26.396 76.7837 26.599C76.584 26.802 76.3843 27.1066 76.4841 27.4112C76.4841 27.7157 76.584 28.0203 76.7837 28.2234C76.9833 28.4264 77.2829 28.5279 77.5825 28.5279H84.7715C85.8699 28.5279 86.8684 28.934 87.5673 29.7462C87.9667 30.1523 88.2663 30.5584 88.466 31.066C88.6657 31.5736 88.7655 32.0812 88.7655 32.6904C88.7655 33.198 88.6657 33.8071 88.466 34.3147C88.2663 34.8223 87.9667 35.2284 87.5673 35.533C87.1679 35.9391 86.7685 36.2437 86.2693 36.3452C85.77 36.5482 85.2708 36.6498 84.6717 36.6498H75.885C75.0862 36.6498 74.4871 36.0406 74.4871 35.2284C74.4871 34.8223 74.587 34.5178 74.8865 34.2132C75.1861 33.9086 75.4856 33.8071 75.885 33.8071H84.7715C85.0711 33.8071 85.3707 33.7056 85.5704 33.5025C85.7701 33.2995 85.8699 32.9949 85.8699 32.6904C85.8699 32.0812 85.3706 31.5736 84.7715 31.5736H77.4826C77.0832 31.4721 76.584 31.3706 76.0847 31.1675Z" fill="url(#paint5_linear_5_0)"/>
    <path d="M185.319 31.1675C184.421 30.7614 183.622 29.9492 183.222 29.0355C182.823 28.0203 182.823 26.9036 183.222 25.8883C183.622 24.9746 184.421 24.1624 185.319 23.7564C185.818 23.5533 186.318 23.4518 186.917 23.4518H195.703C196.103 23.4518 196.402 23.6548 196.702 23.8579C197.301 24.467 197.301 25.3807 196.702 25.8883C196.402 26.1929 196.103 26.2944 195.703 26.2944H186.817C186.517 26.2944 186.218 26.396 186.018 26.599C185.818 26.802 185.619 27.1066 185.719 27.4112C185.719 27.7157 185.818 28.0203 186.018 28.2234C186.218 28.4264 186.517 28.5279 186.817 28.5279H194.006C195.104 28.5279 196.103 28.934 196.802 29.7462C197.201 30.1523 197.501 30.5584 197.7 31.066C197.9 31.5736 198 32.0812 198 32.6904C198 33.198 197.9 33.8071 197.7 34.3147C197.501 34.8223 197.201 35.2284 196.802 35.533C196.402 35.9391 196.003 36.2437 195.504 36.3452C195.005 36.5482 194.505 36.6498 193.906 36.6498H185.12C184.321 36.6498 183.722 36.0406 183.722 35.2284C183.722 34.8223 183.821 34.5178 184.121 34.2132C184.421 33.9086 184.72 33.8071 185.12 33.8071H194.006C194.306 33.8071 194.605 33.7056 194.805 33.5025C195.005 33.2995 195.104 32.9949 195.104 32.6904C195.104 32.0812 194.605 31.5736 194.006 31.5736H186.817C186.318 31.4721 185.818 31.3706 185.319 31.1675Z" fill="url(#paint6_linear_5_0)"/>
    <path d="M155.664 29.7462C155.464 29.8477 155.464 30.1523 155.564 30.3553L155.664 30.4569C156.663 31.1675 158.859 32.7919 159.958 33.6041C160.257 33.9086 160.457 34.3147 160.457 34.7208V36.0406C160.457 36.5482 160.157 36.6497 159.558 36.5482L152.868 31.8782C152.269 31.4721 152.07 30.863 152.07 30.1523C151.97 29.4416 152.269 28.8325 152.868 28.4264L159.558 23.7564C160.057 23.5533 160.357 23.7563 160.457 24.1624V25.2792C160.457 25.6853 160.257 26.0914 159.958 26.3959C158.959 27.1066 156.663 29.0355 155.664 29.7462Z" fill="url(#paint7_linear_5_0)"/>
    <path d="M13.1796 45.8884C13.3793 43.7564 14.0782 41.7259 14.9769 39.797C15.0767 39.4924 15.4761 39.2894 15.7756 39.2894C16.874 39.2894 17.9723 39.1878 19.0707 39.0863C20.169 38.9848 21.0676 38.7817 22.166 38.5787C22.166 38.6802 22.0661 38.7818 21.9663 38.8833C20.6682 40.4061 19.0706 41.7259 17.2734 42.5381C17.0737 42.6396 16.874 42.7412 16.7741 42.9442C16.4746 43.9594 16.175 44.9746 15.8755 46.0914C21.9663 44.3655 26.5593 39.1878 27.6577 32.7919L27.3581 32.8934C23.464 35.6345 18.7711 36.8528 14.0782 36.3452C13.7787 36.3452 13.579 36.4467 13.4791 36.6498C12.0812 38.6802 11.1826 40.9137 10.5835 43.3503C10.4837 43.8579 10.284 43.9594 9.88456 43.8579C7.58804 43.6549 5.29152 42.8427 3.29454 41.6244C2.7953 41.3198 2.5956 41.0152 2.7953 40.5076C2.89515 40.2031 2.89516 39.8985 2.99501 39.5939C3.29455 38.3757 3.69394 37.1574 4.29303 36.0406C4.49273 36.1421 4.69242 36.2437 4.79227 36.3452C6.09031 36.9543 7.38836 37.5635 8.6864 38.1726C8.78625 38.2741 9.18564 38.1726 9.18564 38.0711C9.58503 37.3604 9.98441 36.5483 10.3838 35.8376C9.18562 35.33 7.88758 34.8224 6.78925 34.2132C5.69091 33.6041 4.59258 32.7919 3.3944 32.0812C1.09788 35.0254 -0.200139 38.5787 -0.299988 42.3351C-0.299988 42.5381 -0.100303 42.7412 -0.00045386 42.9442C3.29455 45.7868 7.58804 47.3097 11.8815 47.0051C13.1796 46.7005 13.0797 46.8021 13.1796 45.8884Z" fill="url(#paint8_radial_5_0)"/>
    <path d="M5.89122 29.6447C6.19076 29.9493 6.39048 29.9493 6.69003 29.6447C8.38745 28.2234 10.3844 27.1066 12.4812 26.4975C12.7808 26.396 13.1802 26.396 13.3799 26.7005C14.3784 27.6142 15.3768 28.5279 16.3753 29.3401C16.9744 29.8477 17.6734 30.2538 18.3723 30.7614C18.2725 30.7614 18.1726 30.7614 18.0728 30.863C16.2755 31.066 14.4782 30.863 12.7808 30.2538C12.0818 29.9493 11.2831 30.0508 10.684 30.5584L8.88668 31.6752C14.4782 34.7208 21.2679 34.4163 26.4601 30.7614C26.4601 30.7614 26.4601 30.6599 26.3602 30.6599C21.6673 29.8477 17.3738 27.3097 14.3784 23.4518C14.1787 23.2488 13.979 23.1472 13.6794 23.2488C12.5811 23.5533 11.4827 23.8579 10.3844 24.264C9.08638 24.7716 7.78835 25.4823 6.49032 26.1929C6.39047 26.1929 6.39046 26.0914 6.29061 25.9899C4.89273 24.467 3.89424 22.5381 3.395 20.5076C2.89576 18.2741 2.69607 18.8833 4.49334 17.665C5.49183 16.9543 6.59018 16.5482 7.68851 16.2437L7.78834 16.5482C8.28758 18.0711 8.88668 19.4924 9.38592 21.0153C9.38592 21.1168 9.68546 21.3198 9.78531 21.3198C10.5841 21.1168 11.3829 20.8122 12.2815 20.5076C10.9835 18.1726 10.1847 15.533 9.98502 12.7919C9.38593 12.8934 8.88668 12.9949 8.38744 13.0965C5.39198 13.7056 2.49636 15.2284 0.299685 17.3604C0.199837 17.5635 0.100006 17.7665 0.100006 17.9696C0.299704 22.4366 2.49636 26.7005 5.89122 29.6447Z" fill="url(#paint9_radial_5_0)"/>
    <path d="M28.8563 26.8011C29.7549 21.928 32.2511 17.664 35.9455 14.6184C36.1452 14.4153 36.2451 14.1107 36.1452 13.8062C35.8457 11.9788 35.2466 10.2529 34.4478 8.6285C34.0484 7.91784 33.649 7.20719 33.2496 6.49653C35.2466 4.66911 37.643 3.45083 40.239 3.04474C40.4387 3.04474 40.7383 3.14627 40.8381 3.34931C41.5371 4.56759 42.1362 5.88738 42.8351 7.10565C42.9349 7.3087 43.0348 7.51176 43.0348 7.81633L42.7352 7.91784L38.4418 9.54221C38.3419 9.64373 38.1422 9.84678 38.1422 9.84678C38.3419 10.7605 38.6415 11.5727 38.941 12.4864C41.2375 11.1666 43.8336 10.3544 46.4297 10.1513C46.4297 10.0498 46.4297 10.0498 46.4297 9.9483C46.0303 6.29347 44.5325 2.94323 42.1362 0.202112C41.9365 -0.00093339 41.6369 -0.102469 41.3374 -0.000945773C36.7443 0.405146 32.5507 2.63866 29.6551 6.29348C29.6551 6.39501 29.6551 6.395 29.6551 6.395L29.8548 6.59804C31.2526 8.32393 32.351 10.3544 33.0499 12.5879C33.1498 12.8925 33.0499 13.2985 32.8502 13.5016C31.8517 14.6183 30.9531 15.7351 29.9546 16.8519C29.5552 17.3595 29.1558 17.9686 28.8563 18.5777C28.8563 18.4762 28.8563 18.3747 28.7564 18.2732C28.5567 16.2427 28.8563 14.2123 29.4554 12.3849C29.5552 12.1818 29.6551 11.8772 29.5552 11.7757C29.1558 10.7605 28.5567 9.84678 27.9576 9.0346C24.8623 13.0955 25.3616 23.3493 28.8563 26.8011Z" fill="url(#paint10_radial_5_0)"/>
    <path d="M30.2541 33.198C30.2541 33.2995 30.2541 33.2995 30.2541 33.401C29.4553 37.868 27.1589 42.0305 23.6641 44.9747C22.9652 45.3807 22.6656 46.0914 22.9652 46.9036C23.4644 49.1371 24.3631 51.1675 25.5613 53.0965C25.6611 53.2995 25.761 53.5026 25.5613 53.7056C23.6641 55.4315 21.2678 56.5482 18.7715 56.9543C18.472 56.9543 18.2723 56.8528 18.0726 56.6498C17.4735 55.7361 16.9743 54.9239 16.475 54.0102C16.1755 53.401 15.9758 52.8934 15.7761 52.2843L16.0756 52.1828C17.5734 51.6751 18.9712 51.066 20.469 50.5584C20.5688 50.4569 20.7685 50.2538 20.7685 50.1523C20.5688 49.3401 20.2693 48.5279 19.9697 47.6142C17.5734 48.934 14.9773 49.7462 12.3812 49.9493C12.6808 51.1675 12.8805 52.2843 13.18 53.2995C13.879 55.6345 15.0771 57.8681 16.7746 59.6955C16.9743 59.8985 17.174 60 17.4735 60.1016C21.9667 59.797 26.1604 57.665 29.056 54.1117C29.2557 53.9087 29.2557 53.6041 29.1558 53.401L29.056 53.2995C27.6581 51.5736 26.5597 49.5432 25.8608 47.3097C25.761 47.0051 25.8608 46.7005 26.0605 46.4975C27.059 45.3807 28.0575 44.1624 28.9561 43.0457C29.3555 42.5381 29.6551 42.0305 30.0545 41.3198C30.2542 43.4518 30.0544 45.6853 29.3555 47.7158C29.2557 47.9188 29.1558 48.1218 29.2557 48.2234C29.7549 49.1371 30.2541 50.1523 30.8532 51.1675C34.1482 45.4822 33.8487 38.4772 30.2541 33.198Z" fill="url(#paint11_radial_5_0)"/>
    <path d="M45.2314 46.7005C43.0348 46.4975 40.938 45.7868 39.0408 44.7716C38.7413 44.6701 38.6415 44.3655 38.6415 44.0609C38.5416 42.4366 38.4417 40.9137 38.242 39.3909C38.1422 38.7818 38.0423 38.2741 37.8426 37.5635C37.9425 37.5635 38.0424 37.665 38.1422 37.665C39.6399 38.9848 40.938 40.6092 41.8366 42.5381C41.9364 42.7411 42.0363 42.9442 42.1362 42.9442C43.1346 43.2488 44.1331 43.5533 45.2314 43.8579C43.534 37.665 38.4418 32.8934 32.1513 31.7767C32.1513 31.8782 32.1513 31.9797 32.2511 31.9797C34.947 35.9391 36.1452 40.7107 35.646 45.4823C35.5461 45.7868 35.7458 46.0914 35.9455 46.1929C37.2436 46.9036 38.5416 47.6142 39.8396 48.2234C40.8381 48.6295 41.9365 48.934 43.0348 49.2386C43.0348 49.4416 43.0348 49.6447 43.0348 49.8477C42.8351 52.1828 42.0363 54.4163 40.8381 56.3452C40.6384 56.8528 40.0393 57.1574 39.4402 56.9543C37.9425 56.6498 36.5446 56.1422 35.1468 55.4315C35.2466 55.2285 35.3464 55.1269 35.4463 54.9239C36.0454 53.5026 36.6445 52.1828 37.2435 50.863C37.2435 50.7614 37.2435 50.4569 37.2435 50.4569C36.4448 50.0508 35.646 49.6447 34.8472 49.1371C34.0484 51.6751 32.8502 54.1117 31.1528 56.2437C34.0484 58.5787 37.5431 59.8985 41.2375 60C41.4372 60 41.7367 59.797 41.8366 59.6955C44.7322 56.3452 46.1301 51.8782 45.8305 47.4112C45.9304 46.8021 45.7307 46.7005 45.2314 46.7005Z" fill="url(#paint12_radial_5_0)"/>
    <path d="M56.7141 34.6193C55.7156 32.7919 54.3177 31.2691 52.7201 29.9493L52.4206 30.1523C50.6233 31.6752 48.6263 32.6904 46.4297 33.401C46.1301 33.5026 45.8306 33.401 45.6309 33.198C44.5325 32.1828 43.3344 31.066 42.1362 30.1523C41.6369 29.7462 41.1377 29.4417 40.6384 29.1371C40.7383 29.1371 40.7383 29.0356 40.8381 29.0356C42.8351 28.8325 44.9319 29.1371 46.829 29.8477C46.9289 29.9493 47.1286 29.9493 47.3283 29.9493C48.3268 29.5432 49.2254 28.934 50.1241 28.2234C44.6324 25.1777 37.8427 25.5838 32.6505 29.2386C33.2496 29.3401 33.7489 29.4417 34.2481 29.6447C38.3419 30.6599 42.0363 33.0965 44.7322 36.3452C44.9319 36.5483 45.1316 36.6498 45.3313 36.6498C46.829 36.2437 48.3268 35.7361 49.8245 35.1269C50.7231 34.7208 51.7216 34.2132 52.5204 33.7056C52.6203 33.7056 52.6203 33.8071 52.7201 33.8071C54.4175 35.7361 55.6157 38.1726 56.0151 40.7107C56.0151 40.9137 55.9153 41.2183 55.7156 41.3198C54.5174 42.2335 53.2194 42.9442 51.8215 43.4518C51.6218 43.4518 51.5219 43.5533 51.3222 43.5533C51.3222 43.4518 51.3222 43.3503 51.2224 43.2488C50.7231 41.7259 50.1241 40.3046 49.6248 38.7818C49.525 38.4772 49.3253 38.3757 49.0257 38.4772C48.3268 38.7817 47.528 38.9848 46.7292 39.1878C48.0272 41.5229 48.7262 44.1625 49.0257 46.8021C49.1256 46.8021 49.1256 46.8021 49.2254 46.8021C52.82 46.396 56.2148 44.7716 58.8109 42.2335C58.9107 42.0305 59.0106 41.8274 59.0106 41.6244C58.8109 39.3909 58.0121 36.9543 56.7141 34.6193Z" fill="url(#paint13_radial_5_0)"/>
    <path d="M45.8305 13.9087C45.6308 16.1422 44.9319 18.3757 43.9334 20.3046C43.8336 20.6092 43.534 20.8122 43.2345 20.7107C41.4372 20.7107 39.7398 20.8122 37.9425 21.2183C37.5431 21.3198 37.2436 21.4214 36.8442 21.5229C36.8442 21.4214 36.944 21.4213 36.944 21.4213C38.242 19.797 39.8396 18.5787 41.6369 17.665C41.8366 17.5635 42.0363 17.462 42.1362 17.3604C42.5356 16.3452 42.8351 15.33 42.9349 14.2132C38.1422 14.7208 31.4523 22.2335 31.2526 27.4112C31.3525 27.3097 31.5522 27.2081 31.652 27.2081C35.4463 24.5686 40.0393 23.4518 44.6324 23.8579C45.0318 23.9594 45.3313 23.7564 45.531 23.4518C46.829 21.4213 47.8275 19.1878 48.3268 16.7513C48.4266 16.3452 48.5265 16.2437 48.9259 16.3452C51.4221 16.5482 53.8184 17.462 55.8154 18.8833C56.115 18.9848 56.2148 19.2894 56.115 19.5939C55.7156 20.8122 55.416 22.132 55.0166 23.3503C54.9168 23.6548 54.7171 23.9594 54.5174 24.264L54.2178 24.0609C52.8199 23.4518 51.4221 22.7411 50.0242 22.132C49.9244 22.0305 49.6248 22.132 49.525 22.2335C49.1256 22.9442 48.7262 23.7564 48.2269 24.5686C50.823 25.3807 53.1195 26.599 55.2163 28.3249C57.5128 25.3807 58.9107 21.8274 59.0106 18.0711C59.0106 17.868 58.9107 17.665 58.711 17.462C55.3162 14.5178 50.9228 13.0965 46.5295 13.401C46.0303 13.2995 45.9304 13.401 45.8305 13.9087Z" fill="url(#paint14_radial_5_0)"/>
    <path d="M14.0786 13.401C16.1755 13.7056 18.1724 14.3147 19.9697 15.2284C20.2693 15.33 20.469 15.7361 20.469 16.0406C20.469 17.1574 20.5688 18.2741 20.6687 19.3909C20.7685 20.4061 20.9682 21.5229 21.1679 22.5381L20.8684 22.2335C19.3706 20.9137 18.0726 19.2894 17.2738 17.462C17.1739 17.2589 17.0741 17.0559 16.9743 17.0559C15.9758 16.6498 14.8774 16.3452 13.8789 16.2437C15.6762 22.4366 20.6687 27.0051 26.9591 28.1219L26.6596 27.7158C24.1634 23.8579 22.9652 19.2894 23.3646 14.7208C23.4644 14.2132 23.2647 13.8071 22.7655 13.6041C20.8683 12.2843 18.6717 11.3706 16.3752 10.863C15.8759 10.7614 15.7761 10.5584 15.8759 10.1523C16.0756 7.71575 16.8744 5.48226 18.1725 3.4518C18.472 3.04571 18.6717 2.84266 19.2708 2.94418C19.8699 3.04571 20.2693 3.04571 20.6687 3.24876C21.6672 3.55332 22.7655 3.95941 23.764 4.3655L23.5643 4.67007C22.9652 6.09139 22.2663 7.51271 21.6672 9.03555C21.5673 9.2386 21.6671 9.44164 21.767 9.64468C22.4659 10.0508 23.2647 10.4569 24.0635 10.863C24.8623 8.3249 26.0605 5.88835 27.7579 3.75637C27.5582 3.65485 27.4584 3.4518 27.3585 3.4518C24.6626 1.31982 21.4675 0.101544 18.0726 -0.101501C17.6732 -0.101501 17.2738 1.51768e-05 17.0741 0.304584C14.3782 3.65484 12.9803 7.91879 13.18 12.1828C13.0802 13.401 12.8805 13.198 14.0786 13.401Z" fill="url(#paint15_radial_5_0)"/>
  </g>
  <defs>
    <linearGradient id="paint0_linear_5_0" x1="99.6121" y1="36.6396" x2="99.6121" y2="23.3097" gradientUnits="userSpaceOnUse">
      <stop stop-color="#00CEFF"/>
      <stop offset="0.99" stop-color="#008CFF"/>
    </linearGradient>
    <linearGradient id="paint1_linear_5_0" x1="117.836" y1="36.6396" x2="117.836" y2="23.3097" gradientUnits="userSpaceOnUse">
      <stop stop-color="#00CEFF"/>
      <stop offset="0.99" stop-color="#008CFF"/>
    </linearGradient>
    <linearGradient id="paint2_linear_5_0" x1="135.888" y1="36.6599" x2="135.888" y2="23.3097" gradientUnits="userSpaceOnUse">
      <stop stop-color="#00CEFF"/>
      <stop offset="0.99" stop-color="#008CFF"/>
    </linearGradient>
    <linearGradient id="paint3_linear_5_0" x1="148.755" y1="36.6524" x2="148.755" y2="23.3326" gradientUnits="userSpaceOnUse">
      <stop stop-color="#00CEFF"/>
      <stop offset="0.99" stop-color="#008CFF"/>
    </linearGradient>
    <linearGradient id="paint4_linear_5_0" x1="172.195" y1="36.6599" x2="172.195" y2="23.3198" gradientUnits="userSpaceOnUse">
      <stop stop-color="#00CEFF"/>
      <stop offset="0.99" stop-color="#008CFF"/>
    </linearGradient>
    <linearGradient id="paint5_linear_5_0" x1="73.6359" y1="30.0355" x2="88.7057" y2="30.0355" gradientUnits="userSpaceOnUse">
      <stop stop-color="#00CEFF"/>
      <stop offset="0.99" stop-color="#008CFF"/>
    </linearGradient>
    <linearGradient id="paint6_linear_5_0" x1="182.9" y1="30.0355" x2="197.97" y2="30.0355" gradientUnits="userSpaceOnUse">
      <stop stop-color="#00CEFF"/>
      <stop offset="0.99" stop-color="#008CFF"/>
    </linearGradient>
    <linearGradient id="paint7_linear_5_0" x1="160.467" y1="30.0763" x2="152.08" y2="30.0763" gradientUnits="userSpaceOnUse">
      <stop stop-color="#00CEFF"/>
      <stop offset="0.99" stop-color="#008CFF"/>
    </linearGradient>
    <radialGradient id="paint8_radial_5_0" cx="0" cy="0" r="1" gradientUnits="userSpaceOnUse" gradientTransform="translate(13.8985 39.3401) scale(11.1008 11.2869)">
      <stop stop-color="#00FFFF"/>
      <stop offset="0.62" stop-color="#00DEFF"/>
      <stop offset="1" stop-color="#008CFF"/>
    </radialGradient>
    <radialGradient id="paint9_radial_5_0" cx="0" cy="0" r="1" gradientUnits="userSpaceOnUse" gradientTransform="translate(13.2002 23.2441) scale(11.8335 12.0319)">
      <stop stop-color="#00FFFF"/>
      <stop offset="0.62" stop-color="#00DEFF"/>
      <stop offset="1" stop-color="#008CFF"/>
    </radialGradient>
    <radialGradient id="paint10_radial_5_0" cx="0" cy="0" r="1" gradientUnits="userSpaceOnUse" gradientTransform="translate(36.1452 13.3932) scale(11.7939 11.9917)">
      <stop stop-color="#00FFFF"/>
      <stop offset="0.62" stop-color="#00DEFF"/>
      <stop offset="1" stop-color="#008CFF"/>
    </radialGradient>
    <radialGradient id="paint11_radial_5_0" cx="0" cy="0" r="1" gradientUnits="userSpaceOnUse" gradientTransform="translate(22.8337 46.5787) scale(11.8443 12.0428)">
      <stop stop-color="#00FFFF"/>
      <stop offset="0.62" stop-color="#00DEFF"/>
      <stop offset="1" stop-color="#008CFF"/>
    </radialGradient>
    <radialGradient id="paint12_radial_5_0" cx="0" cy="0" r="1" gradientUnits="userSpaceOnUse" gradientTransform="translate(38.6714 45.868) scale(11.1131 11.2995)">
      <stop stop-color="#00FFFF"/>
      <stop offset="0.62" stop-color="#00DEFF"/>
      <stop offset="1" stop-color="#008CFF"/>
    </radialGradient>
    <radialGradient id="paint13_radial_5_0" cx="0" cy="0" r="1" gradientUnits="userSpaceOnUse" gradientTransform="translate(45.8206 36.7208) scale(11.8221 12.0203)">
      <stop stop-color="#00FFFF"/>
      <stop offset="0.62" stop-color="#00DEFF"/>
      <stop offset="1" stop-color="#008CFF"/>
    </radialGradient>
    <radialGradient id="paint14_radial_5_0" cx="0" cy="0" r="1" gradientUnits="userSpaceOnUse" gradientTransform="translate(45.1316 20.6802) scale(11.1174 11.3038)">
      <stop stop-color="#00FFFF"/>
      <stop offset="0.62" stop-color="#00DEFF"/>
      <stop offset="1" stop-color="#008CFF"/>
    </radialGradient>
    <radialGradient id="paint15_radial_5_0" cx="0" cy="0" r="1" gradientUnits="userSpaceOnUse" gradientTransform="translate(20.3491 14.0944) scale(11.115 11.3014)">
      <stop stop-color="#00FFFF"/>
      <stop offset="0.62" stop-color="#00DEFF"/>
      <stop offset="1" stop-color="#008CFF"/>
    </radialGradient>
    <clipPath id="clip0_5_0">
      <rect width="198" height="60" fill="white"/>
    </clipPath>
  </defs>
</svg>