<svg width="60" height="60" viewBox="0 0 60 60" fill="none" xmlns="http://www.w3.org/2000/svg">
<path d="M26.0796 31.974C26.593 32.4873 27.1796 32.876 27.8396 33.14C28.4996 33.404 29.2183 33.536 29.9956 33.536C30.817 33.536 31.477 33.3233 31.9756 32.898C32.4596 32.4873 32.7016 31.9593 32.7016 31.314C32.7016 30.6393 32.467 30.0893 31.9976 29.664C31.543 29.2533 30.905 29.048 30.0836 29.048C28.8663 29.048 27.8323 29.4513 26.9816 30.258L24.8036 29.664V21.282H34.8796V23.966H27.8616V27.64C28.2723 27.2733 28.7636 26.98 29.3356 26.76C29.9076 26.54 30.5163 26.43 31.1616 26.43C31.983 26.43 32.7603 26.6207 33.4936 27.002C34.2123 27.3687 34.7916 27.9187 35.2316 28.652C35.6716 29.3853 35.8916 30.2213 35.8916 31.16C35.8916 32.2013 35.6496 33.1033 35.1656 33.866C34.6816 34.6433 33.9996 35.2373 33.1196 35.648C32.2543 36.0587 31.2276 36.264 30.0396 36.264C27.605 36.264 25.7203 35.5307 24.3856 34.064L26.1016 31.952L26.0796 31.974Z" fill="#3585F5"/>
<circle cx="30" cy="30" r="29" stroke="#3585F5" stroke-width="2"/>
</svg>
