<svg xmlns="http://www.w3.org/2000/svg" width="1440" height="1004" viewBox="0 0 1440 1004" fill="none">
  <path d="M186.5 6.5002C63 7.50041 0 97.0002 0 97.0002V880C0 880 40.8984 899.077 69 904C99.1962 909.29 147.5 904 147.5 904L121.5 1004L255 887.5C255 887.5 290.097 878.318 311 868.5C335.806 856.848 370 830.5 370 830.5C370 830.5 408.283 860.668 436 874.5C469.76 891.348 528 904 528 904L585 963L575 904C575 904 641.295 897.137 679.5 880C719.804 861.921 771 813.5 771 813.5H809.5C809.5 813.5 824.013 819.024 833.5 822C846.018 825.926 866 830.5 866 830.5L841.5 904L929.5 836C929.5 836 962.194 835.046 982.5 830.5C1002.27 826.075 1031.5 813.5 1031.5 813.5H1080C1080 813.5 1109.36 841.451 1131 855.5C1160.1 874.391 1212 892 1212 892L1298 979.5L1285 907.5C1285 907.5 1337.12 911.9 1369.5 905.5C1411.5 897.199 1440 880 1440 880V97.0002C1440 97.0002 1373 8.50006 1245.5 5.0002C1118 1.50034 1049.5 100.5 1049.5 100.5C1049.5 100.5 1013.5 84.0001 973 81.0002C932.5 78.0004 900 88.5002 900 88.5002C900 88.5002 834 -0.500117 710.5 1.0002C587 2.50052 530.5 75.0002 530.5 75.0002C530.5 75.0002 500.5 51.5 449 51.0002C397.5 50.5004 368.5 75.0002 368.5 75.0002C368.5 75.0002 310 5.5 186.5 6.5002Z" fill="#3585F5"/>
</svg>