<svg width="60" height="60" viewBox="0 0 60 60" fill="none" xmlns="http://www.w3.org/2000/svg">
<path d="M26.1999 31.952C26.6986 32.4507 27.3146 32.854 28.0479 33.162C28.7666 33.47 29.4926 33.624 30.2259 33.624C31.1059 33.624 31.7879 33.448 32.2719 33.096C32.7559 32.744 32.9979 32.282 32.9979 31.71C32.9979 31.1233 32.7559 30.6833 32.2719 30.39C31.8026 30.1113 31.0546 29.972 30.0279 29.972C29.4853 29.972 29.0599 29.972 28.7519 29.972C28.4439 29.972 28.2533 29.9793 28.1799 29.994V27.266C28.2679 27.2807 28.4659 27.288 28.7739 27.288C29.0819 27.288 29.4926 27.288 30.0059 27.288C30.8419 27.288 31.5019 27.156 31.9859 26.892C32.4699 26.628 32.7119 26.2173 32.7119 25.66C32.7119 25.1027 32.4626 24.67 31.9639 24.362C31.4506 24.054 30.7906 23.9 29.9839 23.9C28.5466 23.9 27.2926 24.4133 26.2219 25.44L24.6819 23.504C25.3126 22.7853 26.1046 22.2133 27.0579 21.788C28.0259 21.3627 29.1039 21.15 30.2919 21.15C32.0226 21.15 33.3793 21.5093 34.3619 22.228C35.3593 22.9613 35.8579 23.9293 35.8579 25.132C35.8579 26.012 35.5426 26.7453 34.9119 27.332C34.2666 27.9333 33.5113 28.3073 32.6459 28.454C33.1886 28.5127 33.7239 28.6887 34.2519 28.982C34.7799 29.2753 35.2199 29.6713 35.5719 30.17C35.9239 30.6833 36.0999 31.2773 36.0999 31.952C36.0999 32.788 35.8579 33.536 35.3739 34.196C34.9046 34.8413 34.2226 35.3547 33.3279 35.736C32.4626 36.1027 31.4433 36.286 30.2699 36.286C28.9646 36.286 27.8206 36.066 26.8379 35.626C25.8406 35.186 25.0559 34.614 24.4839 33.91L26.1119 31.864L26.1999 31.952Z" fill="#3585F5"/>
<circle cx="30" cy="30" r="29" stroke="#3585F5" stroke-width="2"/>
</svg>
