<svg width="60" height="60" viewBox="0 0 60 60" fill="none" xmlns="http://www.w3.org/2000/svg">
<path d="M24.3943 33.47C25.4943 32.6633 26.4403 31.952 27.2323 31.336C28.039 30.72 28.7063 30.1993 29.2343 29.774C30.261 28.938 31.0163 28.1973 31.5003 27.552C31.955 26.9507 32.1823 26.342 32.1823 25.726C32.1823 25.1393 31.9476 24.6773 31.4783 24.34C31.009 24.0027 30.4443 23.834 29.7843 23.834C28.2736 23.834 26.9756 24.3987 25.8903 25.528L24.1083 23.46C24.783 22.668 25.6336 22.074 26.6603 21.678C27.6723 21.282 28.7136 21.084 29.7843 21.084C30.7963 21.084 31.7423 21.2747 32.6223 21.656C33.4876 22.0373 34.1623 22.58 34.6463 23.284C35.1303 23.988 35.3723 24.8167 35.3723 25.77C35.3723 26.9873 34.8883 28.1753 33.9203 29.334C32.967 30.478 31.449 31.7833 29.3663 33.25H35.4823V36H24.4383V33.536L24.3943 33.47Z" fill="#3585F5"/>
<circle cx="30" cy="30" r="29" stroke="#3585F5" stroke-width="2"/>
</svg>
